<?xml version="1.0" standalone="no"?><svg xmlns="http://www.w3.org/2000/svg" viewBox="0 0 1440 320"><path fill="#FAF3DD" fill-opacity="1" d="M0,64L24,69.3C48,75,96,85,144,128C192,171,240,245,288,229.3C336,213,384,107,432,58.7C480,11,528,21,576,58.7C624,96,672,160,720,160C768,160,816,96,864,90.7C912,85,960,139,1008,181.3C1056,224,1104,256,1152,234.7C1200,213,1248,139,1296,112C1344,85,1392,107,1416,117.3L1440,128L1440,320L1416,320C1392,320,1344,320,1296,320C1248,320,1200,320,1152,320C1104,320,1056,320,1008,320C960,320,912,320,864,320C816,320,768,320,720,320C672,320,624,320,576,320C528,320,480,320,432,320C384,320,336,320,288,320C240,320,192,320,144,320C96,320,48,320,24,320L0,320Z"></path></svg>